<svg xmlns="http://www.w3.org/2000/svg" width="180" height="180" viewBox="0 0 180 180">
  <defs>
    <g id="m" fill="#C9A24B" stroke="#C9A24B" stroke-width="0.9">
      <!-- four-petal bloom -->
      <ellipse cx="0" cy="-17" rx="5" ry="14"/>
      <ellipse cx="0" cy="17" rx="5" ry="14"/>
      <ellipse cx="-17" cy="0" rx="14" ry="5"/>
      <ellipse cx="17" cy="0" rx="14" ry="5"/>
      <g transform="rotate(45)">
        <ellipse cx="0" cy="-12" rx="3" ry="9"/>
        <ellipse cx="0" cy="12" rx="3" ry="9"/>
        <ellipse cx="-12" cy="0" rx="9" ry="3"/>
        <ellipse cx="12" cy="0" rx="9" ry="3"/>
      </g>
      <circle r="5"/>
      <circle cx="0" cy="-30" r="2"/>
      <circle cx="0" cy="30" r="2"/>
      <circle cx="-30" cy="0" r="2"/>
      <circle cx="30" cy="0" r="2"/>
    </g>
    <g id="d" fill="#C9A24B">
      <path d="M0 -6 L4 0 L0 6 L-4 0 Z"/>
      <circle r="1.2"/>
    </g>
  </defs>
  <g opacity="0.13">
    <use href="#m" x="90" y="90"/>
    <use href="#m" x="0" y="0"/>
    <use href="#m" x="180" y="0"/>
    <use href="#m" x="0" y="180"/>
    <use href="#m" x="180" y="180"/>
    <use href="#m" x="90" y="0"/>
    <use href="#m" x="0" y="90"/>
    <use href="#m" x="180" y="90"/>
    <use href="#m" x="90" y="180"/>
    <use href="#d" x="45" y="45"/>
    <use href="#d" x="135" y="45"/>
    <use href="#d" x="45" y="135"/>
    <use href="#d" x="135" y="135"/>
  </g>
</svg>
