<svg xmlns="http://www.w3.org/2000/svg" width="100" height="150" viewBox="0 0 100 150">
  <defs>
    <radialGradient id="halo" cx="50%" cy="44%" r="55%">
      <stop offset="0%" stop-color="#FFC371" stop-opacity="0.55"/>
      <stop offset="60%" stop-color="#FF9A4D" stop-opacity="0.18"/>
      <stop offset="100%" stop-color="#FF8A3D" stop-opacity="0"/>
    </radialGradient>
    <linearGradient id="body" x1="0" y1="0" x2="0" y2="1">
      <stop offset="0%" stop-color="#FFE0A0"/>
      <stop offset="45%" stop-color="#FFB152"/>
      <stop offset="100%" stop-color="#F07A33"/>
    </linearGradient>
  </defs>
  <ellipse cx="50" cy="62" rx="46" ry="54" fill="url(#halo)"/>
  <!-- top rim -->
  <rect x="42" y="34" width="16" height="6" rx="2" fill="#C97B3A"/>
  <!-- lantern body -->
  <path d="M30 50 C30 42 38 38 50 38 C62 38 70 42 70 50 L70 96 C70 106 62 112 50 112 C38 112 30 106 30 96 Z" fill="url(#body)"/>
  <!-- soft inner glow -->
  <ellipse cx="50" cy="74" rx="16" ry="26" fill="#FFE8B0" opacity="0.5"/>
  <!-- ribs -->
  <g stroke="#E08A40" stroke-width="1" opacity="0.5">
    <line x1="42" y1="42" x2="40" y2="108"/>
    <line x1="50" y1="40" x2="50" y2="110"/>
    <line x1="58" y1="42" x2="60" y2="108"/>
  </g>
  <!-- base -->
  <ellipse cx="50" cy="110" rx="13" ry="4" fill="#C76A2E"/>
  <!-- tassel -->
  <line x1="50" y1="113" x2="50" y2="128" stroke="#C97B3A" stroke-width="1.4"/>
  <circle cx="50" cy="131" r="3" fill="#E0954A"/>
</svg>
