<svg xmlns="http://www.w3.org/2000/svg" width="92" height="92" viewBox="0 0 92 92">
  <defs>
    <g id="bloom">
      <g fill="#C9A24B">
        <ellipse cx="0" cy="-12" rx="3.6" ry="9"/>
        <ellipse cx="0" cy="12" rx="3.6" ry="9"/>
        <ellipse cx="-12" cy="0" rx="9" ry="3.6"/>
        <ellipse cx="12" cy="0" rx="9" ry="3.6"/>
        <g transform="rotate(45)">
          <ellipse cx="0" cy="-12" rx="3.6" ry="9"/>
          <ellipse cx="0" cy="12" rx="3.6" ry="9"/>
          <ellipse cx="-12" cy="0" rx="9" ry="3.6"/>
          <ellipse cx="12" cy="0" rx="9" ry="3.6"/>
        </g>
      </g>
      <g fill="#E0BC6A">
        <ellipse cx="0" cy="-7" rx="2.4" ry="5.5"/>
        <ellipse cx="0" cy="7" rx="2.4" ry="5.5"/>
        <ellipse cx="-7" cy="0" rx="5.5" ry="2.4"/>
        <ellipse cx="7" cy="0" rx="5.5" ry="2.4"/>
      </g>
      <circle r="4.2" fill="#E8CE8A"/>
      <circle r="2" fill="#9A7327"/>
    </g>
  </defs>
  <g fill="none" stroke="#9A8038" stroke-width="1.3" stroke-linecap="round">
    <path d="M14 80 Q34 60 50 50"/>
    <path d="M14 80 Q20 64 33 60"/>
  </g>
  <g fill="#8E7A33" opacity="0.85">
    <path d="M30 62 Q40 56 50 60 Q40 66 30 62 Z"/>
    <path d="M19 71 Q26 65 34 69 Q26 73 19 71 Z"/>
  </g>
  <g transform="translate(24,26)"><use href="#bloom"/></g>
  <g transform="translate(58,55) scale(0.6)"><use href="#bloom"/></g>
</svg>
